<svg xmlns="http://www.w3.org/2000/svg" version="1.1" xmlns:xlink="http://www.w3.org/1999/xlink" xmlns:svgjs="http://svgjs.dev/svgjs" width="1500" height="1500" viewBox="0 0 1500 1500"><rect width="1500" height="1500" fill="#00784a"></rect><g transform="matrix(0.6666666666666666,0,0,0.6666666666666666,249.39393939393932,645.5774928073051)"><svg viewBox="0 0 396 83" data-background-color="#00784a" preserveAspectRatio="xMidYMid meet" height="314" width="1500" xmlns="http://www.w3.org/2000/svg" xmlns:xlink="http://www.w3.org/1999/xlink"><g id="tight-bounds" transform="matrix(1,0,0,1,0.24000000000003752,-0.09680845385182124)"><svg viewBox="0 0 395.5199999999999 83.19361690770364" height="83.19361690770364" width="395.5199999999999"><g><svg viewBox="0 0 519.9190523048125 109.35969473215742" height="83.19361690770364" width="395.5199999999999"><g transform="matrix(1,0,0,1,124.3990523048125,15.114111211173714)"><svg viewBox="0 0 395.52 79.13147230981" height="79.13147230981" width="395.52"><g id="textblocktransform"><svg viewBox="0 0 395.52 79.13147230981" height="79.13147230981" width="395.52" id="textblock"><g><svg viewBox="0 0 395.52 52.42081702351241" height="52.42081702351241" width="395.52"><g transform="matrix(1,0,0,1,0,0)"><svg width="395.52" viewBox="2.34 -38.6 371.69 49.27" height="52.42081702351241" data-palette-color="#fffafe"><path d="M2.34-35.55L31.88-35.55 31.88-26.98 28.32-26.98 27.59-31.91 19.53-31.91 19.53-3.76 23.51-3.08 23.51 0 10.74 0 10.74-3.08 14.72-3.76 14.72-31.91 6.67-31.91 5.96-26.98 2.34-26.98 2.34-35.55ZM46.68 0.51L46.68 0.51Q43.02 0.51 40.31-1.17L40.31-1.17Q37.6-2.83 36.12-5.81 34.64-8.79 34.64-12.7L34.64-12.7 34.64-13.77Q34.64-17.55 36.2-20.51L36.2-20.51Q37.74-23.49 40.32-25.2 42.89-26.9 45.94-26.9L45.94-26.9Q49.51-26.9 51.93-25.44L51.93-25.44Q54.32-23.97 55.54-21.33 56.76-18.68 56.76-15.09L56.76-15.09 56.76-12.08 39.62-12.08 39.55-11.96Q39.57-9.47 40.45-7.47L40.45-7.47Q41.31-5.49 42.88-4.37 44.46-3.25 46.68-3.25L46.68-3.25Q49.12-3.25 50.96-3.94 52.81-4.64 54.15-5.86L54.15-5.86 56.03-2.73Q54.61-1.37 52.28-0.43 49.95 0.51 46.68 0.51ZM39.72-15.97L39.72-15.97 39.77-15.84 51.95-15.84 51.95-16.48Q51.95-18.41 51.29-19.9L51.29-19.9Q50.61-21.41 49.28-22.27 47.95-23.12 45.94-23.12L45.94-23.12Q44.36-23.12 43.02-22.19L43.02-22.19Q40.28-20.21 39.72-15.97ZM72.43 0.51L72.43 0.51Q68.87 0.51 66.18-1.17L66.18-1.17Q63.52-2.83 62.06-5.81 60.59-8.79 60.59-12.7L60.59-12.7 60.59-13.72Q60.59-17.53 62.01-20.46L62.01-20.46Q63.42-23.44 66.08-25.17 68.75-26.9 72.43-26.9L72.43-26.9Q75.63-26.9 78.03-25.85 80.44-24.8 82.08-22.97L82.08-22.97 82.2-16.63 78.44-16.63 77.61-21.24Q76.78-22.09 75.53-22.61 74.29-23.12 72.6-23.12L72.6-23.12Q70.43-23.12 68.84-21.85L68.84-21.85Q67.21-20.58 66.3-18.46 65.4-16.33 65.4-13.72L65.4-13.72 65.4-12.7Q65.4-9.84 66.25-7.69L66.25-7.69Q67.11-5.57 68.67-4.41 70.23-3.25 72.41-3.25L72.41-3.25Q74.85-3.25 76.46-4.59 78.07-5.93 78.44-8.28L78.44-8.28 82.76-8.28 82.81-8.13Q82.71-5.91 81.46-3.88L81.46-3.88Q80.24-1.9 77.99-0.7 75.73 0.51 72.43 0.51ZM94.72-19.51L94.72-19.51 94.72-3.76 98.7-3.08 98.7 0 85.93 0 85.93-3.08 89.91-3.76 89.91-34.3 85.93-34.99 85.93-38.09 94.72-38.09 94.72-22.9Q96.09-24.8 98.06-25.85 100.04-26.9 102.46-26.9L102.46-26.9Q106.71-26.9 109.05-24.37 111.39-21.83 111.39-16.55L111.39-16.55 111.39-3.76 115.37-3.08 115.37 0 102.6 0 102.6-3.08 106.58-3.76 106.58-16.6Q106.58-23 100.99-23L100.99-23Q99.02-23 97.39-22.06 95.77-21.12 94.72-19.51ZM150.18-26.42L150.18-22.85 144.42-22.85 144.42-3.76 148.96-3.08 148.96 0 135.63 0 135.63-3.08 139.61-3.76 139.61-22.85 135.49-22.85 135.49-26.42 139.61-26.42 139.61-29.76Q139.61-33.98 141.82-36.29 144.03-38.6 147.99-38.6L147.99-38.6Q148.82-38.6 149.78-38.46 150.74-38.33 151.77-38.09L151.77-38.09 151.18-34.42Q150.74-34.52 150-34.59 149.26-34.67 148.6-34.67L148.6-34.67Q144.42-34.67 144.42-29.76L144.42-29.76 144.42-26.42 150.18-26.42ZM165.37 0.51L165.37 0.51Q161.73 0.51 159.07-1.22L159.07-1.22Q156.41-2.95 154.97-5.98 153.53-9.01 153.53-12.92L153.53-12.92 153.53-13.45Q153.53-17.33 154.97-20.41L154.97-20.41Q156.41-23.46 159.05-25.18 161.7-26.9 165.32-26.9L165.32-26.9Q168.95-26.9 171.64-25.17L171.64-25.17Q174.28-23.44 175.72-20.41 177.16-17.38 177.16-13.45L177.16-13.45 177.16-12.92Q177.16-9.03 175.72-5.96L175.72-5.96Q174.28-2.93 171.64-1.21 169 0.51 165.37 0.51ZM165.37-3.25L165.37-3.25Q167.66-3.25 169.22-4.52L169.22-4.52Q170.76-5.76 171.55-7.95 172.35-10.13 172.35-12.92L172.35-12.92 172.35-13.45Q172.35-16.21 171.57-18.43L171.57-18.43Q170.76-20.61 169.2-21.86 167.64-23.12 165.32-23.12L165.32-23.12Q163.05-23.12 161.46-21.88L161.46-21.88Q159.9-20.61 159.12-18.42 158.33-16.24 158.33-13.45L158.33-13.45 158.33-12.92Q158.33-10.16 159.12-7.96L159.12-7.96Q159.9-5.76 161.47-4.5 163.05-3.25 165.37-3.25ZM189.61-18.73L189.61-18.73 189.61-3.76 193.59-3.08 193.59 0 180.82 0 180.82-3.08 184.8-3.76 184.8-22.63 180.82-23.32 180.82-26.42 189.09-26.42 189.51-23.05 189.56-22.58Q190.68-24.61 192.33-25.76 193.98-26.9 196.1-26.9L196.1-26.9Q196.86-26.9 197.65-26.77 198.44-26.64 198.79-26.51L198.79-26.51 198.15-22.05 194.81-22.24Q192.9-22.36 191.61-21.37 190.31-20.39 189.61-18.73ZM231.96-5.66L232.74-7.79 238.19-22.83 234.65-23.32 234.65-26.42 245.71-26.42 245.71-23.32 242.92-22.95 233.99 0 229.76 0 220.36-22.95 217.63-23.32 217.63-26.42 228.71-26.42 228.71-23.32 225.27-22.83 231.13-7.79 231.81-5.66 231.96-5.66ZM256.86-32.93L251.81-32.93 251.81-38.09 256.86-38.09 256.86-32.93ZM248.07-3.08L252.05-3.76 252.05-22.63 248.07-23.32 248.07-26.42 256.86-26.42 256.86-3.76 260.84-3.08 260.84 0 248.07 0 248.07-3.08ZM263.91-3.08L267.89-3.76 267.89-34.3 263.91-34.99 263.91-38.09 272.7-38.09 272.7-3.76 276.68-3.08 276.68 0 263.91 0 263.91-3.08ZM279.85-3.08L283.83-3.76 283.83-34.3 279.85-34.99 279.85-38.09 288.64-38.09 288.64-3.76 292.62-3.08 292.62 0 279.85 0 279.85-3.08ZM304.58 0.51L304.58 0.51Q300.46 0.51 298.31-1.5 296.16-3.52 296.16-7.18L296.16-7.18Q296.16-9.72 297.55-11.57L297.55-11.57Q298.92-13.45 301.53-14.48 304.14-15.5 307.78-15.5L307.78-15.5 312.49-15.5 312.49-18.09Q312.49-20.48 311.04-21.8 309.59-23.12 306.95-23.12L306.95-23.12Q305.29-23.12 304.07-22.72 302.85-22.31 301.85-21.61L301.85-21.61 301.33-17.92 297.62-17.92 297.62-23.97Q301.21-26.9 307.02-26.9L307.02-26.9Q311.83-26.9 314.57-24.61 317.3-22.31 317.3-18.04L317.3-18.04 317.3-5.32Q317.3-4.81 317.31-4.32 317.33-3.83 317.37-3.34L317.37-3.34 319.94-3.08 319.94 0 313.03 0Q312.61-2 312.52-3.64L312.52-3.64Q311.12-1.86 309.04-0.67 306.95 0.51 304.58 0.51ZM305.29-3.52L305.29-3.52Q307.68-3.52 309.66-4.66 311.64-5.81 312.49-7.42L312.49-7.42 312.49-12.21 307.61-12.21Q304.29-12.21 302.63-10.62 300.97-9.03 300.97-7.08L300.97-7.08Q300.97-3.52 305.29-3.52ZM342.2-26.42L349.53-26.42 349.53-23.34 346.25-22.63 346.25-0.34Q346.25 3.1 344.98 5.54L344.98 5.54Q343.72 8.01 341.25 9.34 338.78 10.67 335.27 10.67L335.27 10.67Q333.36 10.67 331.14 10.14 328.92 9.62 327.24 8.72L327.24 8.72 328.48 4.98Q329.82 5.69 331.65 6.15 333.49 6.62 335.22 6.62L335.22 6.62Q338.44 6.62 339.94 4.81 341.44 3 341.44-0.34L341.44-0.34 341.44-2.86Q338.81 0.51 334.19 0.51L334.19 0.51Q330.97 0.51 328.63-1.1L328.63-1.1Q326.28-2.69 325.03-5.55 323.77-8.42 323.77-12.21L323.77-12.21 323.77-12.72Q323.77-17.02 325.04-20.17L325.04-20.17Q326.28-23.36 328.63-25.13 330.97-26.9 334.24-26.9L334.24-26.9Q339.15-26.9 341.76-23.1L341.76-23.1 342.2-26.42ZM341.44-7.18L341.44-7.18 341.44-19.34Q340.52-21.02 339.03-22.01 337.54-23 335.44-23L335.44-23Q333.14-23 331.63-21.68L331.63-21.68Q330.09-20.36 329.34-18.05 328.58-15.75 328.58-12.72L328.58-12.72 328.58-12.21Q328.58-8.23 330.26-5.81 331.95-3.39 335.39-3.39L335.39-3.39Q337.56-3.39 339.03-4.38 340.49-5.37 341.44-7.18ZM363.95 0.51L363.95 0.51Q360.29 0.51 357.58-1.17L357.58-1.17Q354.87-2.83 353.39-5.81 351.92-8.79 351.92-12.7L351.92-12.7 351.92-13.77Q351.92-17.55 353.48-20.51L353.48-20.51Q355.02-23.49 357.59-25.2 360.17-26.9 363.22-26.9L363.22-26.9Q366.78-26.9 369.2-25.44L369.2-25.44Q371.59-23.97 372.81-21.33 374.03-18.68 374.03-15.09L374.03-15.09 374.03-12.08 356.9-12.08 356.82-11.96Q356.85-9.47 357.73-7.47L357.73-7.47Q358.58-5.49 360.16-4.37 361.73-3.25 363.95-3.25L363.95-3.25Q366.39-3.25 368.24-3.94 370.08-4.64 371.42-5.86L371.42-5.86 373.3-2.73Q371.89-1.37 369.55-0.43 367.22 0.51 363.95 0.51ZM356.99-15.97L356.99-15.97 357.04-15.84 369.23-15.84 369.23-16.48Q369.23-18.41 368.57-19.9L368.57-19.9Q367.88-21.41 366.55-22.27 365.22-23.12 363.22-23.12L363.22-23.12Q361.63-23.12 360.29-22.19L360.29-22.19Q357.56-20.21 356.99-15.97Z" opacity="1" transform="matrix(1,0,0,1,0,0)" fill="#fffafe" class="wordmark-text-0" data-fill-palette-color="primary" id="text-0"></path></svg></g></svg></g><g transform="matrix(1,0,0,1,0,64.79611382315512)"><svg viewBox="0 0 232.209792 14.335358486654865" height="14.335358486654865" width="232.209792"><g transform="matrix(1,0,0,1,0,0)"><svg width="232.209792" viewBox="2.3 -33.5 706.1700000000001 43.6" height="14.335358486654865" data-palette-color="#fffafe"><path d="M20.05-6.15L20.05-6.15Q20.05-2.95 17.7-1.15 15.35 0.65 10.9 0.65L10.9 0.65Q7.1 0.65 4.7-0.53 2.3-1.7 2.3-3.1L2.3-3.1Q2.3-3.7 2.63-4.28 2.95-4.85 3.6-5.2L3.6-5.2Q4.95-4.25 6.75-3.45 8.55-2.65 10.85-2.65L10.85-2.65Q16.05-2.65 16.05-6.15L16.05-6.15Q16.05-7.6 15.18-8.53 14.3-9.45 12.6-9.85L12.6-9.85 8.45-10.95Q5.4-11.7 4-13.28 2.6-14.85 2.6-17.2L2.6-17.2Q2.6-19.85 4.75-21.8 6.9-23.75 11.3-23.75L11.3-23.75Q13.65-23.75 15.4-23.28 17.15-22.8 18.13-22.03 19.1-21.25 19.1-20.35L19.1-20.35Q19.1-19.7 18.78-19.2 18.45-18.7 17.9-18.45L17.9-18.45Q17.3-18.85 16.38-19.33 15.45-19.8 14.2-20.13 12.95-20.45 11.45-20.45L11.45-20.45Q9.25-20.45 7.9-19.6 6.55-18.75 6.55-17.2L6.55-17.2Q6.55-16.1 7.33-15.28 8.1-14.45 9.8-14.05L9.8-14.05 13.25-13.2Q16.65-12.4 18.35-10.68 20.05-8.95 20.05-6.15ZM44.75-16L44.75-16 44.75-10.25 40.75-10.25 40.75-15.7Q40.75-18.15 39.32-19.3 37.9-20.45 35.55-20.45L35.55-20.45Q34-20.45 32.55-19.95 31.1-19.45 30.1-18.8L30.1-18.8 30.1-10.25 26.1-10.25 26.1-18.6Q26.1-19.6 26.52-20.3 26.95-21 28-21.65L28-21.65Q29.35-22.5 31.42-23.13 33.5-23.75 35.6-23.75L35.6-23.75Q38.15-23.75 40.1-22.98 42.05-22.2 43-20.85L43-20.85Q43.3-20.55 43.5-20.3 43.7-20.05 43.9-19.65L43.9-19.65Q44.25-19.05 44.5-18.1 44.75-17.15 44.75-16ZM59.4-15.9L59.4-15.9 59.4-10.25 55.4-10.25 55.4-15.7Q55.4-18.15 54-19.3 52.6-20.45 50.25-20.45L50.25-20.45Q48.5-20.45 46.87-19.73 45.25-19 43.95-17.65L43.95-17.65 42.35-20.55Q43.65-21.85 45.75-22.8 47.85-23.75 50.55-23.75L50.55-23.75Q53.25-23.75 55.22-22.9 57.2-22.05 58.3-20.3 59.4-18.55 59.4-15.9ZM26.1-1.55L26.1-12.9 30.1-12.9 30.1-0.1Q29.85 0 29.35 0.13 28.85 0.25 28.25 0.25L28.25 0.25Q27.2 0.25 26.65-0.18 26.1-0.6 26.1-1.55L26.1-1.55ZM40.75-1.55L40.75-12.9 44.75-12.9 44.75-0.1Q44.5 0 43.97 0.13 43.45 0.25 42.9 0.25L42.9 0.25Q41.8 0.25 41.27-0.18 40.75-0.6 40.75-1.55L40.75-1.55ZM55.4-1.55L55.4-12.9 59.4-12.9 59.4-0.1Q59.15 0 58.62 0.13 58.1 0.25 57.55 0.25L57.55 0.25Q56.45 0.25 55.92-0.18 55.4-0.6 55.4-1.55L55.4-1.55ZM75.15 0.7L75.15 0.7Q70.45 0.7 67.87-1.15 65.3-3 65.3-6.5L65.3-6.5Q65.3-9.75 67.47-11.48 69.65-13.2 73.5-13.55L73.5-13.55 80.6-14.25 80.6-15.65Q80.6-18.15 79.1-19.3 77.6-20.45 75.05-20.45L75.05-20.45Q73-20.45 71.12-19.85 69.25-19.25 67.8-18.5L67.8-18.5Q67.4-18.85 67.07-19.33 66.75-19.8 66.75-20.3L66.75-20.3Q66.75-21.6 68.2-22.3L68.2-22.3Q69.55-23 71.32-23.38 73.1-23.75 75.1-23.75L75.1-23.75Q79.45-23.75 82-21.8 84.55-19.85 84.55-15.65L84.55-15.65 84.55-3.8Q84.55-2.7 84.12-2.13 83.7-1.55 82.85-1.05L82.85-1.05Q81.65-0.4 79.65 0.15 77.65 0.7 75.15 0.7ZM75.15-2.6L75.15-2.6Q77.25-2.6 78.62-3.03 80-3.45 80.6-3.85L80.6-3.85 80.6-11.1 74.4-10.45Q71.8-10.25 70.55-9.3 69.3-8.35 69.3-6.55L69.3-6.55Q69.3-4.7 70.77-3.65 72.25-2.6 75.15-2.6ZM95.84-18.8L95.84-18.8 95.84-10.9 91.84-10.9 91.84-18.5Q91.84-19.65 92.27-20.33 92.69-21 93.69-21.65L93.69-21.65Q94.99-22.5 97.24-23.13 99.49-23.75 102.24-23.75L102.24-23.75Q106.24-23.75 106.24-21.75L106.24-21.75Q106.24-21.25 106.09-20.83 105.94-20.4 105.69-20.1L105.69-20.1Q105.19-20.2 104.39-20.3 103.59-20.4 102.79-20.4L102.79-20.4Q100.49-20.4 98.74-19.93 96.99-19.45 95.84-18.8ZM91.84-1.55L91.84-13.2 95.84-12.6 95.84-0.1Q95.59 0 95.09 0.13 94.59 0.25 93.99 0.25L93.99 0.25Q92.94 0.25 92.39-0.18 91.84-0.6 91.84-1.55L91.84-1.55ZM110.99-6.05L110.99-13.2 114.99-13.2 114.99-6.3Q114.99-4.3 116.14-3.48 117.29-2.65 119.29-2.65L119.29-2.65Q120.14-2.65 121.19-2.95 122.24-3.25 122.94-3.65L122.94-3.65Q123.24-3.35 123.49-2.9 123.74-2.45 123.74-1.85L123.74-1.85Q123.74-0.75 122.44-0.05 121.14 0.65 118.84 0.65L118.84 0.65Q115.34 0.65 113.17-0.9 110.99-2.45 110.99-6.05L110.99-6.05ZM122.14-19.3L113.04-19.3 113.04-22.6 123.19-22.6Q123.34-22.4 123.49-21.95 123.64-21.5 123.64-21L123.64-21Q123.64-20.2 123.24-19.75 122.84-19.3 122.14-19.3L122.14-19.3ZM114.99-28.35L114.99-11.7 110.99-11.7 110.99-29.8Q111.24-29.9 111.77-30.03 112.29-30.15 112.89-30.15L112.89-30.15Q113.94-30.15 114.47-29.73 114.99-29.3 114.99-28.35L114.99-28.35ZM139.59-6.05L139.59-13.2 143.59-13.2 143.59-6.3Q143.59-4.3 144.74-3.48 145.89-2.65 147.89-2.65L147.89-2.65Q148.74-2.65 149.79-2.95 150.84-3.25 151.54-3.65L151.54-3.65Q151.84-3.35 152.09-2.9 152.34-2.45 152.34-1.85L152.34-1.85Q152.34-0.75 151.04-0.05 149.74 0.65 147.44 0.65L147.44 0.65Q143.94 0.65 141.76-0.9 139.59-2.45 139.59-6.05L139.59-6.05ZM150.74-19.3L141.64-19.3 141.64-22.6 151.79-22.6Q151.94-22.4 152.09-21.95 152.24-21.5 152.24-21L152.24-21Q152.24-20.2 151.84-19.75 151.44-19.3 150.74-19.3L150.74-19.3ZM143.59-28.35L143.59-11.7 139.59-11.7 139.59-29.8Q139.84-29.9 140.36-30.03 140.89-30.15 141.49-30.15L141.49-30.15Q142.54-30.15 143.06-29.73 143.59-29.3 143.59-28.35L143.59-28.35ZM176.38-11.35L159.58-9 159.38-12.15 174.48-14.2Q174.28-16.95 172.58-18.73 170.88-20.5 167.88-20.5L167.88-20.5Q164.78-20.5 162.76-18.28 160.73-16.05 160.73-11.9L160.73-11.9 160.73-10.8Q161.08-6.8 163.36-4.73 165.63-2.65 169.58-2.65L169.58-2.65Q171.68-2.65 173.38-3.35 175.08-4.05 176.08-4.85L176.08-4.85Q176.63-4.5 176.96-4.03 177.28-3.55 177.28-2.95L177.28-2.95Q177.28-2 176.21-1.18 175.13-0.35 173.36 0.15 171.58 0.65 169.38 0.65L169.38 0.65Q165.53 0.65 162.71-0.75 159.88-2.15 158.36-4.93 156.83-7.7 156.83-11.7L156.83-11.7Q156.83-14.55 157.66-16.78 158.48-19 159.96-20.55 161.43-22.1 163.48-22.93 165.53-23.75 167.93-23.75L167.93-23.75Q170.98-23.75 173.31-22.45 175.63-21.15 176.96-18.82 178.28-16.5 178.28-13.5L178.28-13.5Q178.28-12.4 177.78-11.93 177.28-11.45 176.38-11.35L176.38-11.35ZM194.78-20.4L194.78-20.4Q191.38-20.4 189.13-18.1 186.88-15.8 186.88-11.5L186.88-11.5Q186.88-7.25 189.06-4.95 191.23-2.65 194.78-2.65L194.78-2.65Q196.88-2.65 198.28-3.23 199.68-3.8 200.78-4.55L200.78-4.55Q201.33-4.25 201.68-3.8 202.03-3.35 202.03-2.7L202.03-2.7Q202.03-1.3 199.96-0.33 197.88 0.65 194.78 0.65L194.78 0.65Q191.33 0.65 188.61-0.68 185.88-2 184.33-4.7 182.78-7.4 182.78-11.5L182.78-11.5Q182.78-15.55 184.38-18.28 185.98-21 188.71-22.38 191.43-23.75 194.68-23.75L194.68-23.75Q197.78-23.75 199.81-22.7 201.83-21.65 201.83-20.3L201.83-20.3Q201.83-19.7 201.48-19.25 201.13-18.8 200.58-18.55L200.58-18.55Q199.48-19.3 198.16-19.85 196.83-20.4 194.78-20.4ZM228.03-14.65L228.03-9.95 224.03-9.95 224.03-14.55Q224.03-17.55 222.35-19 220.68-20.45 218.03-20.45L218.03-20.45Q216.08-20.45 214.4-19.7 212.73-18.95 211.58-17.9L211.58-17.9 210.83-21.15Q212.03-22 214-22.88 215.98-23.75 218.58-23.75L218.58-23.75Q222.73-23.75 225.38-21.5 228.03-19.25 228.03-14.65L228.03-14.65ZM208.08-1.55L208.08-13.2 212.08-13.2 212.08-0.1Q211.83 0 211.33 0.13 210.83 0.25 210.23 0.25L210.23 0.25Q209.18 0.25 208.63-0.18 208.08-0.6 208.08-1.55L208.08-1.55ZM224.03-1.55L224.03-13.15 228.03-13.1 228.03-0.1Q227.78 0 227.25 0.13 226.73 0.25 226.18 0.25L226.18 0.25Q225.08 0.25 224.55-0.18 224.03-0.6 224.03-1.55L224.03-1.55ZM212.08-30.95L212.08-11.25 208.08-11.25 208.08-32.4Q208.33-32.5 208.85-32.63 209.38-32.75 209.98-32.75L209.98-32.75Q211.03-32.75 211.55-32.33 212.08-31.9 212.08-30.95L212.08-30.95ZM255.53-15.25L255.53-15.25 255.53-10.15 251.53-10.15 251.53-15.05Q251.53-17.85 249.95-19.15 248.38-20.45 245.73-20.45L245.73-20.45Q243.73-20.45 242.18-19.95 240.63-19.45 239.53-18.8L239.53-18.8 239.53-10.15 235.53-10.15 235.53-18.6Q235.53-19.65 235.95-20.33 236.38-21 237.43-21.65L237.43-21.65Q238.73-22.4 240.88-23.08 243.03-23.75 245.73-23.75L245.73-23.75Q250.28-23.75 252.9-21.68 255.53-19.6 255.53-15.25ZM235.53-1.55L235.53-12.9 239.53-12.9 239.53-0.1Q239.28 0 238.78 0.13 238.28 0.25 237.68 0.25L237.68 0.25Q236.63 0.25 236.08-0.18 235.53-0.6 235.53-1.55L235.53-1.55ZM251.53-1.55L251.53-12.9 255.53-12.9 255.53-0.1Q255.28 0 254.75 0.13 254.23 0.25 253.68 0.25L253.68 0.25Q252.58 0.25 252.05-0.18 251.53-0.6 251.53-1.55L251.53-1.55ZM284.47-11.55L284.47-11.55Q284.47-7.85 283.07-5.1 281.67-2.35 279.12-0.85 276.57 0.65 273.12 0.65L273.12 0.65Q269.67 0.65 267.1-0.85 264.52-2.35 263.12-5.1 261.72-7.85 261.72-11.55L261.72-11.55Q261.72-15.3 263.15-18.03 264.57-20.75 267.15-22.25 269.72-23.75 273.12-23.75L273.12-23.75Q276.52-23.75 279.07-22.25 281.62-20.75 283.05-18.03 284.47-15.3 284.47-11.55ZM273.12-20.45L273.12-20.45Q269.77-20.45 267.8-18.07 265.82-15.7 265.82-11.55L265.82-11.55Q265.82-7.35 267.75-5 269.67-2.65 273.12-2.65L273.12-2.65Q276.52-2.65 278.45-5.03 280.37-7.4 280.37-11.55L280.37-11.55Q280.37-15.7 278.45-18.07 276.52-20.45 273.12-20.45ZM291.07-1.55L291.07-13.2 295.07-12.6 295.07-0.1Q294.82 0 294.32 0.13 293.82 0.25 293.22 0.25L293.22 0.25Q292.17 0.25 291.62-0.18 291.07-0.6 291.07-1.55L291.07-1.55ZM295.07-30.95L295.07-10.7 291.07-11.25 291.07-32.4Q291.32-32.5 291.85-32.63 292.37-32.75 292.92-32.75L292.92-32.75Q294.02-32.75 294.55-32.33 295.07-31.9 295.07-30.95L295.07-30.95ZM324.42-11.55L324.42-11.55Q324.42-7.85 323.02-5.1 321.62-2.35 319.07-0.85 316.52 0.65 313.07 0.65L313.07 0.65Q309.62 0.65 307.04-0.85 304.47-2.35 303.07-5.1 301.67-7.85 301.67-11.55L301.67-11.55Q301.67-15.3 303.09-18.03 304.52-20.75 307.09-22.25 309.67-23.75 313.07-23.75L313.07-23.75Q316.47-23.75 319.02-22.25 321.57-20.75 322.99-18.03 324.42-15.3 324.42-11.55ZM313.07-20.45L313.07-20.45Q309.72-20.45 307.74-18.07 305.77-15.7 305.77-11.55L305.77-11.55Q305.77-7.35 307.69-5 309.62-2.65 313.07-2.65L313.07-2.65Q316.47-2.65 318.39-5.03 320.32-7.4 320.32-11.55L320.32-11.55Q320.32-15.7 318.39-18.07 316.47-20.45 313.07-20.45ZM340.22-0.7L340.22-0.7Q337.32-0.7 334.87-1.83 332.42-2.95 330.92-5.5 329.42-8.05 329.42-12.25L329.42-12.25Q329.42-16.05 330.89-18.6 332.37-21.15 334.97-22.45 337.57-23.75 340.92-23.75L340.92-23.75Q343.22-23.75 345.14-23.18 347.07-22.6 348.37-21.75L348.37-21.75Q349.12-21.25 349.59-20.63 350.07-20 350.07-19.1L350.07-19.1 350.07-3.65 346.07-3.65 346.07-19.05Q345.22-19.6 343.94-20.03 342.67-20.45 340.92-20.45L340.92-20.45Q337.57-20.45 335.52-18.4 333.47-16.35 333.47-12.3L333.47-12.3Q333.47-7.8 335.54-5.9 337.62-4 340.67-4L340.67-4Q342.87-4 344.22-4.75 345.57-5.5 346.37-6.4L346.37-6.4 346.57-2.85Q345.82-2.05 344.19-1.38 342.57-0.7 340.22-0.7ZM346.07 0.75L346.07 0.75 346.07-4.5 350.07-4.5 350.07 1Q350.07 4.3 348.64 6.3 347.22 8.3 344.74 9.2 342.27 10.1 339.17 10.1L339.17 10.1Q336.67 10.1 334.87 9.55 333.07 9 332.42 8.65L332.42 8.65Q330.92 7.8 330.92 6.5L330.92 6.5Q330.92 5.8 331.24 5.33 331.57 4.85 332.07 4.6L332.07 4.6Q333.12 5.4 335.04 6.08 336.97 6.75 339.17 6.75L339.17 6.75Q342.52 6.75 344.29 5.3 346.07 3.85 346.07 0.75ZM362.16-5.15L362.16-5.15Q361.31-6.75 360.11-9.47 358.91-12.2 357.64-15.58 356.36-18.95 355.21-22.45L355.21-22.45Q355.56-22.95 356.14-23.25 356.71-23.55 357.36-23.55L357.36-23.55Q358.21-23.55 358.76-23.1 359.31-22.65 359.66-21.6L359.66-21.6Q361.16-17.4 362.81-13.25 364.46-9.1 366.46-4.65L366.46-4.65 366.66-4.65Q367.71-6.75 368.86-9.9 370.01-13.05 371.06-16.55 372.11-20.05 372.81-23.15L372.81-23.15Q373.16-23.3 373.59-23.43 374.01-23.55 374.51-23.55L374.51-23.55Q375.36-23.55 375.91-23.13 376.46-22.7 376.46-21.85L376.46-21.85Q376.46-21.05 376.01-19.18 375.56-17.3 374.79-14.83 374.01-12.35 372.99-9.58 371.96-6.8 370.79-4.13 369.61-1.45 368.41 0.7L368.41 0.7Q366.11 4.95 364.21 7.23 362.31 9.5 360.71 9.5L360.71 9.5Q359.56 9.5 358.94 8.9 358.31 8.3 358.16 7.5L358.16 7.5Q359.26 6.55 360.64 4.98 362.01 3.4 363.29 1.58 364.56-0.25 365.36-1.9L365.36-1.9Q364.51-2.15 363.79-2.8 363.06-3.45 362.16-5.15ZM391.56-30.4L391.56-30.4Q391.56-31.45 392.31-32.18 393.06-32.9 394.16-32.9L394.16-32.9Q395.31-32.9 396.01-32.18 396.71-31.45 396.71-30.4L396.71-30.4Q396.71-29.35 396.01-28.63 395.31-27.9 394.16-27.9L394.16-27.9Q393.06-27.9 392.31-28.63 391.56-29.35 391.56-30.4ZM392.16-1.55L392.16-13.2 396.16-13.2 396.16-0.1Q395.91 0 395.41 0.13 394.91 0.25 394.31 0.25L394.31 0.25Q393.26 0.25 392.71-0.18 392.16-0.6 392.16-1.55L392.16-1.55ZM396.16-21.5L396.16-11.25 392.16-11.25 392.16-23Q392.41-23.1 392.93-23.23 393.46-23.35 394.06-23.35L394.06-23.35Q395.11-23.35 395.63-22.93 396.16-22.5 396.16-21.5L396.16-21.5ZM420.26-6.15L420.26-6.15Q420.26-2.95 417.91-1.15 415.56 0.65 411.11 0.65L411.11 0.65Q407.31 0.65 404.91-0.53 402.51-1.7 402.51-3.1L402.51-3.1Q402.51-3.7 402.83-4.28 403.16-4.85 403.81-5.2L403.81-5.2Q405.16-4.25 406.96-3.45 408.76-2.65 411.06-2.65L411.06-2.65Q416.26-2.65 416.26-6.15L416.26-6.15Q416.26-7.6 415.38-8.53 414.51-9.45 412.81-9.85L412.81-9.85 408.66-10.95Q405.61-11.7 404.21-13.28 402.81-14.85 402.81-17.2L402.81-17.2Q402.81-19.85 404.96-21.8 407.11-23.75 411.51-23.75L411.51-23.75Q413.86-23.75 415.61-23.28 417.36-22.8 418.33-22.03 419.31-21.25 419.31-20.35L419.31-20.35Q419.31-19.7 418.98-19.2 418.66-18.7 418.11-18.45L418.11-18.45Q417.51-18.85 416.58-19.33 415.66-19.8 414.41-20.13 413.16-20.45 411.66-20.45L411.66-20.45Q409.46-20.45 408.11-19.6 406.76-18.75 406.76-17.2L406.76-17.2Q406.76-16.1 407.53-15.28 408.31-14.45 410.01-14.05L410.01-14.05 413.46-13.2Q416.86-12.4 418.56-10.68 420.26-8.95 420.26-6.15ZM449.15-18.55L439.65-18.55 439.65-21.8 450.25-21.8Q450.4-21.6 450.55-21.18 450.7-20.75 450.7-20.2L450.7-20.2Q450.7-19.4 450.3-18.98 449.9-18.55 449.15-18.55L449.15-18.55ZM440.35-24.95L440.35-24.95 440.35-19.1 436.4-19.1 436.4-25.15Q436.4-28.1 437.48-29.93 438.55-31.75 440.58-32.63 442.6-33.5 445.4-33.5L445.4-33.5Q448.25-33.5 449.88-32.75 451.5-32 451.5-30.9L451.5-30.9Q451.5-30.35 451.28-29.9 451.05-29.45 450.65-29.05L450.65-29.05Q449.75-29.55 448.4-29.88 447.05-30.2 445.8-30.2L445.8-30.2Q442.75-30.2 441.55-28.95 440.35-27.7 440.35-24.95ZM436.4-1.55L436.4-21.3 440.4-21.3 440.4-0.1Q440.15 0 439.65 0.13 439.15 0.25 438.55 0.25L438.55 0.25Q437.5 0.25 436.95-0.18 436.4-0.6 436.4-1.55L436.4-1.55ZM477.7-11.55L477.7-11.55Q477.7-7.85 476.3-5.1 474.9-2.35 472.35-0.85 469.8 0.65 466.35 0.65L466.35 0.65Q462.9 0.65 460.32-0.85 457.75-2.35 456.35-5.1 454.95-7.85 454.95-11.55L454.95-11.55Q454.95-15.3 456.37-18.03 457.8-20.75 460.37-22.25 462.95-23.75 466.35-23.75L466.35-23.75Q469.75-23.75 472.3-22.25 474.85-20.75 476.27-18.03 477.7-15.3 477.7-11.55ZM466.35-20.45L466.35-20.45Q463-20.45 461.02-18.07 459.05-15.7 459.05-11.55L459.05-11.55Q459.05-7.35 460.97-5 462.9-2.65 466.35-2.65L466.35-2.65Q469.75-2.65 471.67-5.03 473.6-7.4 473.6-11.55L473.6-11.55Q473.6-15.7 471.67-18.07 469.75-20.45 466.35-20.45ZM487.9-18.8L487.9-18.8 487.9-10.9 483.9-10.9 483.9-18.5Q483.9-19.65 484.32-20.33 484.75-21 485.75-21.65L485.75-21.65Q487.05-22.5 489.3-23.13 491.55-23.75 494.3-23.75L494.3-23.75Q498.3-23.75 498.3-21.75L498.3-21.75Q498.3-21.25 498.15-20.83 498-20.4 497.75-20.1L497.75-20.1Q497.25-20.2 496.45-20.3 495.65-20.4 494.85-20.4L494.85-20.4Q492.55-20.4 490.8-19.93 489.05-19.45 487.9-18.8ZM483.9-1.55L483.9-13.2 487.9-12.6 487.9-0.1Q487.65 0 487.15 0.13 486.65 0.25 486.05 0.25L486.05 0.25Q485 0.25 484.45-0.18 483.9-0.6 483.9-1.55L483.9-1.55ZM531.24-11.35L514.44-9 514.24-12.15 529.34-14.2Q529.14-16.95 527.44-18.73 525.74-20.5 522.74-20.5L522.74-20.5Q519.64-20.5 517.62-18.28 515.59-16.05 515.59-11.9L515.59-11.9 515.59-10.8Q515.94-6.8 518.22-4.73 520.49-2.65 524.44-2.65L524.44-2.65Q526.54-2.65 528.24-3.35 529.94-4.05 530.94-4.85L530.94-4.85Q531.49-4.5 531.82-4.03 532.14-3.55 532.14-2.95L532.14-2.95Q532.14-2 531.07-1.18 529.99-0.35 528.22 0.15 526.44 0.65 524.24 0.65L524.24 0.65Q520.39 0.65 517.57-0.75 514.74-2.15 513.22-4.93 511.69-7.7 511.69-11.7L511.69-11.7Q511.69-14.55 512.52-16.78 513.34-19 514.82-20.55 516.29-22.1 518.34-22.93 520.39-23.75 522.79-23.75L522.79-23.75Q525.84-23.75 528.17-22.45 530.49-21.15 531.82-18.82 533.14-16.5 533.14-13.5L533.14-13.5Q533.14-12.4 532.64-11.93 532.14-11.45 531.24-11.35L531.24-11.35ZM556.24-23.55L556.24-23.55Q557.09-23.55 557.61-23.1 558.14-22.65 558.14-21.8L558.14-21.8Q558.14-21.15 557.59-19.35 557.04-17.55 556.14-15.05 555.24-12.55 554.16-9.83 553.09-7.1 551.96-4.58 550.84-2.05 549.89-0.2L549.89-0.2Q549.64 0 549.01 0.15 548.39 0.3 547.69 0.3L547.69 0.3Q546.84 0.3 546.19 0.03 545.54-0.25 545.29-0.75L545.29-0.75Q544.74-1.75 543.86-3.68 542.99-5.6 541.99-8.05 540.99-10.5 539.96-13.13 538.94-15.75 538.09-18.18 537.24-20.6 536.69-22.45L536.69-22.45Q537.04-22.95 537.64-23.25 538.24-23.55 538.84-23.55L538.84-23.55Q539.74-23.55 540.24-23.1 540.74-22.65 541.09-21.6L541.09-21.6 544.19-12.65Q544.59-11.5 545.24-9.8 545.89-8.1 546.54-6.4 547.19-4.7 547.59-3.55L547.59-3.55 547.79-3.55Q549.79-8.6 551.54-13.53 553.29-18.45 554.54-23.15L554.54-23.15Q555.19-23.55 556.24-23.55ZM581.94-11.35L565.14-9 564.94-12.15 580.04-14.2Q579.84-16.95 578.14-18.73 576.44-20.5 573.44-20.5L573.44-20.5Q570.34-20.5 568.31-18.28 566.29-16.05 566.29-11.9L566.29-11.9 566.29-10.8Q566.64-6.8 568.91-4.73 571.19-2.65 575.14-2.65L575.14-2.65Q577.24-2.65 578.94-3.35 580.64-4.05 581.64-4.85L581.64-4.85Q582.19-4.5 582.51-4.03 582.84-3.55 582.84-2.95L582.84-2.95Q582.84-2 581.76-1.18 580.69-0.35 578.91 0.15 577.14 0.65 574.94 0.65L574.94 0.65Q571.09 0.65 568.26-0.75 565.44-2.15 563.91-4.93 562.39-7.7 562.39-11.7L562.39-11.7Q562.39-14.55 563.21-16.78 564.04-19 565.51-20.55 566.99-22.1 569.04-22.93 571.09-23.75 573.49-23.75L573.49-23.75Q576.54-23.75 578.86-22.45 581.19-21.15 582.51-18.82 583.84-16.5 583.84-13.5L583.84-13.5Q583.84-12.4 583.34-11.93 582.84-11.45 581.94-11.35L581.94-11.35ZM593.63-18.8L593.63-18.8 593.63-10.9 589.63-10.9 589.63-18.5Q589.63-19.65 590.06-20.33 590.48-21 591.48-21.65L591.48-21.65Q592.78-22.5 595.03-23.13 597.28-23.75 600.03-23.75L600.03-23.75Q604.03-23.75 604.03-21.75L604.03-21.75Q604.03-21.25 603.88-20.83 603.73-20.4 603.48-20.1L603.48-20.1Q602.98-20.2 602.18-20.3 601.38-20.4 600.58-20.4L600.58-20.4Q598.28-20.4 596.53-19.93 594.78-19.45 593.63-18.8ZM589.63-1.55L589.63-13.2 593.63-12.6 593.63-0.1Q593.38 0 592.88 0.13 592.38 0.25 591.78 0.25L591.78 0.25Q590.73 0.25 590.18-0.18 589.63-0.6 589.63-1.55L589.63-1.55ZM613.43-5.15L613.43-5.15Q612.58-6.75 611.38-9.47 610.18-12.2 608.9-15.58 607.63-18.95 606.48-22.45L606.48-22.45Q606.83-22.95 607.4-23.25 607.98-23.55 608.63-23.55L608.63-23.55Q609.48-23.55 610.03-23.1 610.58-22.65 610.93-21.6L610.93-21.6Q612.43-17.4 614.08-13.25 615.73-9.1 617.73-4.65L617.73-4.65 617.93-4.65Q618.98-6.75 620.13-9.9 621.28-13.05 622.33-16.55 623.38-20.05 624.08-23.15L624.08-23.15Q624.43-23.3 624.86-23.43 625.28-23.55 625.78-23.55L625.78-23.55Q626.63-23.55 627.18-23.13 627.73-22.7 627.73-21.85L627.73-21.85Q627.73-21.05 627.28-19.18 626.83-17.3 626.06-14.83 625.28-12.35 624.25-9.58 623.23-6.8 622.06-4.13 620.88-1.45 619.68 0.7L619.68 0.7Q617.38 4.95 615.48 7.23 613.58 9.5 611.98 9.5L611.98 9.5Q610.83 9.5 610.21 8.9 609.58 8.3 609.43 7.5L609.43 7.5Q610.53 6.55 611.9 4.98 613.28 3.4 614.56 1.58 615.83-0.25 616.63-1.9L616.63-1.9Q615.78-2.15 615.06-2.8 614.33-3.45 613.43-5.15ZM654.63-11.55L654.63-11.55Q654.63-7.85 653.23-5.1 651.83-2.35 649.28-0.85 646.73 0.65 643.28 0.65L643.28 0.65Q639.83 0.65 637.25-0.85 634.68-2.35 633.28-5.1 631.88-7.85 631.88-11.55L631.88-11.55Q631.88-15.3 633.3-18.03 634.73-20.75 637.3-22.25 639.88-23.75 643.28-23.75L643.28-23.75Q646.68-23.75 649.23-22.25 651.78-20.75 653.2-18.03 654.63-15.3 654.63-11.55ZM643.28-20.45L643.28-20.45Q639.93-20.45 637.95-18.07 635.98-15.7 635.98-11.55L635.98-11.55Q635.98-7.35 637.9-5 639.83-2.65 643.28-2.65L643.28-2.65Q646.68-2.65 648.6-5.03 650.53-7.4 650.53-11.55L650.53-11.55Q650.53-15.7 648.6-18.07 646.68-20.45 643.28-20.45ZM680.82-15.25L680.82-15.25 680.82-10.15 676.82-10.15 676.82-15.05Q676.82-17.85 675.25-19.15 673.67-20.45 671.02-20.45L671.02-20.45Q669.02-20.45 667.47-19.95 665.92-19.45 664.82-18.8L664.82-18.8 664.82-10.15 660.82-10.15 660.82-18.6Q660.82-19.65 661.25-20.33 661.67-21 662.72-21.65L662.72-21.65Q664.02-22.4 666.17-23.08 668.32-23.75 671.02-23.75L671.02-23.75Q675.57-23.75 678.2-21.68 680.82-19.6 680.82-15.25ZM660.82-1.55L660.82-12.9 664.82-12.9 664.82-0.1Q664.57 0 664.07 0.13 663.57 0.25 662.97 0.25L662.97 0.25Q661.92 0.25 661.37-0.18 660.82-0.6 660.82-1.55L660.82-1.55ZM676.82-1.55L676.82-12.9 680.82-12.9 680.82-0.1Q680.57 0 680.05 0.13 679.52 0.25 678.97 0.25L678.97 0.25Q677.87 0.25 677.35-0.18 676.82-0.6 676.82-1.55L676.82-1.55ZM706.57-11.35L689.77-9 689.57-12.15 704.67-14.2Q704.47-16.95 702.77-18.73 701.07-20.5 698.07-20.5L698.07-20.5Q694.97-20.5 692.95-18.28 690.92-16.05 690.92-11.9L690.92-11.9 690.92-10.8Q691.27-6.8 693.55-4.73 695.82-2.65 699.77-2.65L699.77-2.65Q701.87-2.65 703.57-3.35 705.27-4.05 706.27-4.85L706.27-4.85Q706.82-4.5 707.15-4.03 707.47-3.55 707.47-2.95L707.47-2.95Q707.47-2 706.4-1.18 705.32-0.35 703.55 0.15 701.77 0.65 699.57 0.65L699.57 0.65Q695.72 0.65 692.9-0.75 690.07-2.15 688.55-4.93 687.02-7.7 687.02-11.7L687.02-11.7Q687.02-14.55 687.85-16.78 688.67-19 690.15-20.55 691.62-22.1 693.67-22.93 695.72-23.75 698.12-23.75L698.12-23.75Q701.17-23.75 703.5-22.45 705.82-21.15 707.15-18.82 708.47-16.5 708.47-13.5L708.47-13.5Q708.47-12.4 707.97-11.93 707.47-11.45 706.57-11.35L706.57-11.35Z" opacity="1" transform="matrix(1,0,0,1,0,0)" fill="#fffafe" class="slogan-text-1" data-fill-palette-color="secondary" id="text-1"></path></svg></g></svg></g></svg></g></svg></g><g><svg viewBox="0 0 112.02375550516979 109.35969473215742" height="109.35969473215742" width="112.02375550516979"><g><svg xmlns="http://www.w3.org/2000/svg" xmlns:xlink="http://www.w3.org/1999/xlink" version="1.1" x="0" y="0" viewBox="8 8.9 84.1 82.1" style="enable-background:new 0 0 100 100;" xml:space="preserve" height="109.35969473215742" width="112.02375550516979" class="icon-icon-0" data-fill-palette-color="accent" id="icon-0"><g fill="#fffafe" data-fill-palette-color="accent"><path d="M81 9C74.9 9 70 13.9 70 20 70 21.2 70.2 22.4 70.6 23.6L54.3 39.9C53 39.3 51.5 39 50 39 43.9 39 39 43.9 39 50S43.9 61 50 61 61 56.1 61 50C61 47.6 60.2 45.5 59 43.7L74.1 28.6C76 30.1 78.4 31 81 31 87.1 31 92 26.1 92 20S87.1 9 81 9M50 55C47.2 55 45 52.8 45 50S47.2 45 50 45 55 47.2 55 50 52.8 55 50 55M81 25C78.2 25 76 22.8 76 20S78.2 15 81 15 86 17.2 86 20 83.8 25 81 25" fill="#fffafe" data-fill-palette-color="accent"></path><path d="M50 31C56.1 31 61 26.1 61 20S56.1 9 50 9 39 13.9 39 20 43.9 31 50 31M50 15C52.8 15 55 17.2 55 20S52.8 25 50 25 45 22.8 45 20 47.2 15 50 15" fill="#fffafe" data-fill-palette-color="accent"></path><path d="M81 39C74.9 39 70 43.9 70 50S74.9 61 81 61 92 56.1 92 50 87.1 39 81 39M81 55C78.2 55 76 52.8 76 50S78.2 45 81 45 86 47.2 86 50 83.8 55 81 55" fill="#fffafe" data-fill-palette-color="accent"></path><path d="M19 91C25.1 91 30 86.1 30 80S25.1 69 19 69 8 73.9 8 80 12.9 91 19 91M19 75C21.8 75 24 77.2 24 80S21.8 85 19 85 14 82.8 14 80 16.2 75 19 75" fill="#fffafe" data-fill-palette-color="accent"></path><path d="M81 69C76 69 71.7 72.4 70.4 77H60.5C59.2 72.4 55 69 49.9 69 46.9 69 44.1 70.2 42.1 72.2L27.1 57.2C29 55.3 30 52.8 30 50 30 45 26.6 40.7 22 39.4V30.5C26.6 29.2 30 25 30 19.9 30 13.8 25.1 8.9 19 8.9S8 13.9 8 20C8 25 11.4 29.3 16 30.6V39.5C11.4 40.7 8 45 8 50 8 56.1 12.9 61 19 61 20.1 61 21.1 60.8 22.1 60.6L39.3 77.8C39.1 78.5 39 79.2 39 80 39 86.1 43.9 91 50 91 55 91 59.3 87.6 60.6 83H70.5C71.8 87.6 76 91 81.1 91 87.2 91 92.1 86.1 92.1 80S87.1 69 81 69M14 20C14 17.2 16.2 15 19 15S24 17.2 24 20 21.8 25 19 25 14 22.8 14 20M14 50C14 47.2 16.2 45 19 45S24 47.2 24 50 21.8 55 19 55 14 52.8 14 50M50 85C47.2 85 45 82.8 45 80S47.2 75 50 75 55 77.2 55 80 52.8 85 50 85M81 85C78.2 85 76 82.8 76 80S78.2 75 81 75 86 77.2 86 80 83.8 85 81 85" fill="#fffafe" data-fill-palette-color="accent"></path></g></svg></g></svg></g></svg></g><defs></defs></svg><rect width="395.5199999999999" height="83.19361690770364" fill="none" stroke="none" visibility="hidden"></rect></g></svg></g></svg>